<?xml version="1.0" encoding="utf-8"?>
<!-- Generator: Adobe Illustrator 25.4.1, SVG Export Plug-In . SVG Version: 6.00 Build 0)  -->
<svg version="1.1" id="Слой_1" xmlns="http://www.w3.org/2000/svg" xmlns:xlink="http://www.w3.org/1999/xlink" x="0px" y="0px"
	 viewBox="0 0 150 150" style="enable-background:new 0 0 150 150;" xml:space="preserve">
<style type="text/css">
	.st0{fill:#FFFFFF;}
</style>
<path class="st0" d="M94.4,61.3C88.1,54.5,82,48.2,76,41.9c-3.8-4.1-6.1-8.6-4.3-14.4c3.1-10.4,15.2-14.3,23.1-6.7
	c15,14.5,29.7,29.3,44.3,44.3c6.3,6.5,5.9,14.5-0.5,21c-14.1,14.3-28.4,28.5-42.7,42.7c-5.8,5.7-14.6,5.9-20.1,0.6
	c-5.5-5.3-5.6-14.6,0-20.5c5-5.2,10.3-10.2,15.5-15.3c1-1,2-2.2,3.5-3.9c-2.8-0.2-4.7-0.4-6.6-0.4c-20.7,0-41.5,0-62.2,0
	c-2.1,0-4.2-0.1-6.3-0.2c-8.3-0.7-13.6-6.3-13.4-14.2c0.2-7.8,5.7-13.4,14.1-13.5c19.2-0.2,38.4-0.1,57.6-0.1
	C83.5,61.3,88.9,61.3,94.4,61.3z"/>
</svg>
