<?xml version="1.0" encoding="utf-8"?>
<!-- Generator: Adobe Illustrator 25.4.1, SVG Export Plug-In . SVG Version: 6.00 Build 0)  -->
<svg version="1.1" id="Слой_1" xmlns="http://www.w3.org/2000/svg" xmlns:xlink="http://www.w3.org/1999/xlink" x="0px" y="0px"
	 viewBox="0 0 150 150" style="enable-background:new 0 0 150 150;" xml:space="preserve">
<style type="text/css">
	.st0{fill:#FFFFFF;}
</style>
<path class="st0" d="M55.6,61.3C61.9,54.5,68,48.2,74,41.9c3.8-4.1,6.1-8.6,4.3-14.4C75.1,17,63.1,13.2,55.2,20.8
	C40.2,35.3,25.5,50.1,10.9,65c-6.3,6.5-5.9,14.5,0.5,21c14.1,14.3,28.4,28.5,42.7,42.7c5.8,5.7,14.6,5.9,20.1,0.6
	c5.5-5.3,5.6-14.6,0-20.5c-5-5.2-10.3-10.2-15.5-15.3c-1-1-2-2.2-3.5-3.9c2.8-0.2,4.7-0.4,6.6-0.4c20.7,0,41.5,0,62.2,0
	c2.1,0,4.2-0.1,6.3-0.2c8.3-0.7,13.6-6.3,13.4-14.2c-0.2-7.8-5.7-13.4-14.1-13.5c-19.2-0.2-38.4-0.1-57.6-0.1
	C66.5,61.3,61.1,61.3,55.6,61.3z"/>
</svg>
