<?xml version="1.0" encoding="utf-8"?>
<!-- Generator: Adobe Illustrator 25.4.1, SVG Export Plug-In . SVG Version: 6.00 Build 0)  -->
<svg version="1.1" id="Слой_1" xmlns="http://www.w3.org/2000/svg" xmlns:xlink="http://www.w3.org/1999/xlink" x="0px" y="0px"
	 viewBox="0 0 120 107" style="enable-background:new 0 0 120 107;" xml:space="preserve">
<style type="text/css">
	.st0{fill:#FFFFFF;}
</style>
<g>
	<path class="st0" d="M111.69,1.88H32.24c-3.1,0-5.63,2.53-5.63,5.63v35.77c0,3.1,2.53,5.63,5.63,5.63h33.17L8.69,99.06
		c-0.3-0.3-0.66-0.55-1.07-0.73c-1.79-0.77-3.87,0.05-4.65,1.84c-0.77,1.79,0.05,3.87,1.84,4.65c1.79,0.77,3.87-0.05,4.65-1.84
		c0.53-1.22,0.3-2.56-0.45-3.54l57.15-50.54h45.52c3.1,0,5.63-2.53,5.63-5.63V7.51C117.32,4.4,114.79,1.88,111.69,1.88z
		 M116.82,43.28c0,2.83-2.3,5.13-5.13,5.13H32.24c-2.83,0-5.13-2.3-5.13-5.13V7.51c0-2.83,2.3-5.13,5.13-5.13h79.45
		c2.83,0,5.13,2.3,5.13,5.13V43.28z"/>
	<path class="st0" d="M38.84,13.8c0.25-0.33,0.61-0.5,1.07-0.5c0.36,0,0.66,0.12,0.89,0.35s0.36,0.53,0.37,0.9h1.34
		c-0.02-0.71-0.27-1.29-0.75-1.73s-1.09-0.66-1.84-0.66c-0.89,0-1.59,0.29-2.11,0.87s-0.77,1.35-0.77,2.32v0.15
		c0,1.01,0.26,1.8,0.78,2.38s1.22,0.86,2.11,0.86c0.46,0,0.88-0.1,1.28-0.3s0.71-0.47,0.94-0.81s0.35-0.71,0.37-1.1h-1.34
		c-0.02,0.3-0.14,0.56-0.38,0.77s-0.53,0.31-0.88,0.31c-0.47,0-0.83-0.17-1.08-0.51s-0.37-0.85-0.37-1.54v-0.23
		C38.46,14.64,38.59,14.13,38.84,13.8z"/>
	<polygon class="st0" points="52.26,18.61 52.26,12.27 50.48,12.27 48.61,16.86 46.75,12.27 44.95,12.27 44.95,18.61 46.38,18.61 
		46.38,14.39 48.13,18.61 49.09,18.61 50.84,14.42 50.84,18.61 	"/>
	<path class="st0" d="M57.75,12.15c-0.54,0-1.04,0.14-1.48,0.42s-0.78,0.67-1.03,1.16s-0.37,1.06-0.37,1.7v0.18
		c0,0.95,0.28,1.7,0.84,2.27s1.29,0.85,2.19,0.85c0.53,0,1-0.1,1.43-0.31s0.76-0.5,1.02-0.88l-0.77-0.73
		c-0.41,0.53-0.94,0.79-1.59,0.79c-0.46,0-0.85-0.15-1.16-0.46s-0.48-0.72-0.52-1.24h4.14v-0.57c0-1.01-0.24-1.79-0.71-2.34
		S58.61,12.15,57.75,12.15z M59.05,14.85h-2.71c0.07-0.49,0.22-0.87,0.46-1.14s0.56-0.41,0.95-0.41c0.39,0,0.7,0.12,0.93,0.37
		s0.35,0.6,0.38,1.08V14.85z"/>
	<path class="st0" d="M64.36,13.8c0.25-0.33,0.61-0.5,1.07-0.5c0.36,0,0.66,0.12,0.89,0.35s0.36,0.53,0.37,0.9h1.34
		c-0.02-0.71-0.27-1.29-0.75-1.73s-1.09-0.66-1.84-0.66c-0.89,0-1.59,0.29-2.11,0.87s-0.77,1.35-0.77,2.32v0.15
		c0,1.01,0.26,1.8,0.78,2.38s1.22,0.86,2.11,0.86c0.46,0,0.88-0.1,1.28-0.3s0.71-0.47,0.94-0.81s0.35-0.71,0.37-1.1h-1.34
		c-0.02,0.3-0.14,0.56-0.38,0.77s-0.53,0.31-0.88,0.31c-0.47,0-0.83-0.17-1.07-0.51s-0.37-0.85-0.37-1.54v-0.23
		C63.98,14.64,64.11,14.13,64.36,13.8z"/>
	<polygon class="st0" points="74.32,14.38 74.32,18.61 75.74,18.61 75.74,12.27 74.32,12.27 71.84,16.5 71.84,12.27 70.42,12.27 
		70.42,18.61 71.84,18.61 	"/>
	<polygon class="st0" points="80.02,18.61 81.45,18.61 81.45,13.4 83.5,13.4 83.5,12.27 77.99,12.27 77.99,13.4 80.02,13.4 	"/>
	<path class="st0" d="M89.55,18.41c0.42-0.21,0.76-0.5,1.02-0.88L89.8,16.8c-0.41,0.53-0.94,0.79-1.59,0.79
		c-0.46,0-0.85-0.15-1.16-0.46s-0.48-0.72-0.52-1.24h4.14v-0.57c0-1.01-0.24-1.79-0.71-2.34s-1.14-0.83-2-0.83
		c-0.54,0-1.04,0.14-1.48,0.42s-0.79,0.67-1.03,1.16s-0.37,1.06-0.37,1.7v0.18c0,0.95,0.28,1.7,0.84,2.27s1.29,0.85,2.2,0.85
		C88.65,18.73,89.13,18.62,89.55,18.41z M87.01,13.71c0.24-0.27,0.56-0.41,0.95-0.41c0.39,0,0.7,0.12,0.93,0.37s0.35,0.6,0.38,1.08
		v0.11h-2.71C86.62,14.36,86.77,13.98,87.01,13.71z"/>
	<path class="st0" d="M97,13.42v5.19h1.42v-6.34h-4.56l-0.12,2.71c-0.04,0.89-0.13,1.51-0.27,1.85s-0.37,0.53-0.68,0.57l-0.29,0.03
		l0.01,1.18h0.44c0.69,0,1.2-0.23,1.53-0.69s0.54-1.23,0.61-2.29l0.12-2.21H97z"/>
	<polygon class="st0" points="102.67,16.5 102.67,12.27 101.25,12.27 101.25,18.61 102.67,18.61 105.15,14.38 105.15,18.61 
		106.57,18.61 106.57,12.27 105.15,12.27 	"/>
	<path class="st0" d="M48.23,30.98c-0.53-0.55-1.23-0.83-2.08-0.83c-0.58,0-1.09,0.13-1.54,0.4s-0.79,0.65-1.04,1.15
		s-0.37,1.06-0.37,1.68v0.07c0,0.99,0.27,1.79,0.81,2.38s1.25,0.89,2.15,0.89c0.59,0,1.1-0.13,1.55-0.4s0.79-0.65,1.03-1.14
		s0.36-1.05,0.36-1.68l-0.01-0.33C49.05,32.26,48.77,31.53,48.23,30.98z M47.28,35.03c-0.27,0.38-0.64,0.56-1.12,0.56
		s-0.86-0.18-1.12-0.55s-0.4-0.88-0.4-1.53c0-0.73,0.14-1.29,0.41-1.66s0.64-0.55,1.11-0.55c0.47,0,0.85,0.19,1.12,0.56
		s0.41,0.88,0.41,1.52C47.69,34.1,47.55,34.65,47.28,35.03z"/>
	<polygon class="st0" points="50.87,31.4 52.9,31.4 52.9,36.61 54.32,36.61 54.32,31.4 56.38,31.4 56.38,30.27 50.87,30.27 	"/>
	<polygon class="st0" points="63.09,29.27 63.09,30.47 65.18,29.76 65.18,36.61 66.6,36.61 66.6,28.05 66.42,28.05 	"/>
	<path class="st0" d="M75,32.22c0.37-0.19,0.66-0.44,0.88-0.77s0.32-0.7,0.32-1.12c0-0.73-0.23-1.3-0.7-1.73s-1.1-0.64-1.9-0.64
		c-0.8,0-1.43,0.21-1.9,0.64s-0.7,1-0.7,1.73c0,0.42,0.11,0.79,0.32,1.12s0.5,0.58,0.87,0.77c-0.44,0.2-0.78,0.47-1.02,0.84
		s-0.36,0.77-0.36,1.23c0,0.75,0.25,1.34,0.76,1.78s1.19,0.66,2.04,0.66c0.84,0,1.52-0.22,2.03-0.66s0.76-1.03,0.76-1.78
		c0-0.45-0.12-0.86-0.36-1.22S75.44,32.42,75,32.22z M72.73,29.45c0.21-0.23,0.5-0.34,0.86-0.34s0.65,0.12,0.87,0.36
		s0.32,0.55,0.32,0.92c0,0.39-0.11,0.7-0.32,0.93s-0.5,0.35-0.86,0.35s-0.65-0.12-0.86-0.35s-0.32-0.54-0.32-0.93
		C72.41,29.99,72.52,29.68,72.73,29.45z M74.6,35.23c-0.24,0.24-0.58,0.36-1,0.36s-0.77-0.12-1.01-0.38s-0.37-0.58-0.37-1
		c0-0.43,0.12-0.77,0.37-1.03s0.58-0.39,0.99-0.39s0.75,0.13,1,0.39s0.38,0.6,0.38,1.02C74.96,34.65,74.84,34.99,74.6,35.23z"/>
	<path class="st0" d="M82.03,31.01c-0.5,0-0.94,0.11-1.34,0.34l0.23-2.04h3.4v-1.23h-4.58l-0.46,4.3l1.14,0.28
		c0.21-0.2,0.41-0.33,0.59-0.4s0.4-0.1,0.66-0.1c0.47,0,0.84,0.15,1.11,0.45s0.4,0.71,0.4,1.23c0,0.54-0.12,0.96-0.37,1.28
		s-0.58,0.47-1.02,0.47c-0.39,0-0.71-0.11-0.95-0.33s-0.39-0.54-0.45-0.95h-1.38c0.04,0.73,0.32,1.31,0.83,1.75s1.16,0.67,1.94,0.67
		c0.87,0,1.56-0.26,2.06-0.77s0.75-1.2,0.75-2.07c0-0.88-0.23-1.58-0.68-2.1S82.85,31.01,82.03,31.01z"/>
	<path class="st0" d="M89.75,27.96c-0.94,0-1.64,0.31-2.1,0.92s-0.69,1.53-0.69,2.76v1.48c0.01,1.19,0.25,2.09,0.72,2.7
		s1.16,0.91,2.08,0.91c0.94,0,1.64-0.31,2.1-0.93s0.69-1.55,0.69-2.77v-1.48c-0.01-1.19-0.25-2.09-0.71-2.68
		S90.68,27.96,89.75,27.96z M91.12,33.35c-0.01,0.77-0.13,1.33-0.35,1.7s-0.56,0.54-1.01,0.54c-0.48,0-0.83-0.2-1.05-0.59
		s-0.33-0.98-0.33-1.78v-1.93c0.01-0.75,0.13-1.3,0.35-1.66s0.56-0.53,1.03-0.53c0.48,0,0.82,0.19,1.04,0.56s0.33,0.96,0.33,1.76
		V33.35z"/>
	<path class="st0" d="M98.23,30.15c-0.72,0-1.29,0.25-1.71,0.76l-0.06-0.64h-1.31v8.78h1.42v-3.01c0.42,0.46,0.97,0.69,1.67,0.69
		c0.75,0,1.35-0.29,1.79-0.88s0.67-1.37,0.67-2.35v-0.09c0-1.02-0.22-1.82-0.66-2.4S99,30.15,98.23,30.15z M98.91,35.04
		c-0.26,0.37-0.61,0.55-1.06,0.55c-0.59,0-1.01-0.25-1.27-0.74v-2.81c0.25-0.48,0.67-0.72,1.25-0.72c0.47,0,0.83,0.19,1.08,0.56
		s0.38,0.87,0.38,1.51C99.29,34.12,99.16,34.68,98.91,35.04z"/>
</g>
</svg>
