<?xml version="1.0" encoding="utf-8"?>
<!-- Generator: Adobe Illustrator 25.4.1, SVG Export Plug-In . SVG Version: 6.00 Build 0)  -->
<svg version="1.1" id="Слой_1" xmlns="http://www.w3.org/2000/svg" xmlns:xlink="http://www.w3.org/1999/xlink" x="0px" y="0px"
	 viewBox="0 0 162.76 143.48" style="enable-background:new 0 0 162.76 143.48;" xml:space="preserve">
<style type="text/css">
	.st0{fill:#FFFFFF;}
</style>
<g>
	<path class="st0" d="M155.1,3.31H7.64c-3.1,0-5.63,2.53-5.63,5.63v35.77c0,3.1,2.52,5.63,5.63,5.63h77.52l50.43,79.1
		c-0.48,0.36-0.89,0.83-1.15,1.42c-0.77,1.79,0.05,3.87,1.84,4.65c1.79,0.77,3.87-0.05,4.65-1.84s-0.05-3.87-1.84-4.65
		c-1.04-0.45-2.16-0.35-3.08,0.15L85.75,50.34h69.35c3.1,0,5.63-2.53,5.63-5.63V8.94C160.73,5.84,158.2,3.31,155.1,3.31z
		 M160.23,44.71c0,2.83-2.3,5.13-5.13,5.13H7.64c-2.83,0-5.13-2.3-5.13-5.13V8.94c0-2.83,2.3-5.13,5.13-5.13H155.1
		c2.83,0,5.13,2.3,5.13,5.13V44.71z"/>
	<polygon class="st0" points="13.04,21.17 14.46,21.17 14.46,15.98 17.22,15.98 17.22,14.83 13.04,14.83 	"/>
	<polygon class="st0" points="20.75,19.06 20.75,14.83 19.34,14.83 19.34,21.17 20.75,21.17 23.24,16.94 23.24,21.17 24.66,21.17 
		24.66,14.83 23.24,14.83 	"/>
	<polygon class="st0" points="27.48,21.17 28.9,21.17 28.9,15.98 31.65,15.98 31.65,14.83 27.48,14.83 	"/>
	<polygon class="st0" points="35.19,19.06 35.19,14.83 33.77,14.83 33.77,21.17 35.19,21.17 37.68,16.94 37.68,21.17 39.09,21.17 
		39.09,14.83 37.68,14.83 	"/>
	<path class="st0" d="M44.5,14.71c-0.54,0-1.04,0.14-1.48,0.42s-0.78,0.67-1.03,1.16c-0.24,0.5-0.37,1.06-0.37,1.7v0.18
		c0,0.95,0.28,1.7,0.84,2.27s1.29,0.85,2.19,0.85c0.53,0,1-0.1,1.43-0.31s0.76-0.5,1.02-0.88l-0.77-0.73
		c-0.41,0.53-0.94,0.79-1.59,0.79c-0.46,0-0.85-0.15-1.16-0.46s-0.48-0.72-0.52-1.24h4.14v-0.57c0-1.01-0.24-1.79-0.71-2.34
		C46.03,14.99,45.36,14.71,44.5,14.71z M45.8,17.41h-2.71c0.07-0.49,0.22-0.87,0.46-1.14c0.24-0.27,0.56-0.41,0.95-0.41
		c0.39,0,0.7,0.12,0.93,0.37c0.22,0.24,0.35,0.6,0.38,1.08V17.41z"/>
	<polygon class="st0" points="53.51,21.17 54.94,21.17 54.94,14.83 53.51,14.83 53.51,17.47 51.05,17.47 51.05,14.83 49.62,14.83 
		49.62,21.17 51.05,21.17 51.05,18.61 53.51,18.61 	"/>
	<polygon class="st0" points="61.67,21.17 63.09,21.17 63.09,14.83 61.67,14.83 59.19,19.06 59.19,14.83 57.77,14.83 57.77,21.17 
		59.19,21.17 61.67,16.94 	"/>
	<path class="st0" d="M69.52,17.9c-0.39,0.09-0.78,0.13-1.16,0.13c-0.42,0-0.74-0.1-0.94-0.29s-0.31-0.52-0.31-0.98v-1.95h-1.42
		v1.95c0,0.78,0.23,1.37,0.69,1.79s1.12,0.62,1.99,0.62c0.41,0,0.79-0.04,1.16-0.13v2.12h1.42v-6.34h-1.42V17.9z"/>
	<path class="st0" d="M76.35,14.71c-0.54,0-1.04,0.14-1.48,0.42s-0.78,0.67-1.03,1.16c-0.24,0.5-0.37,1.06-0.37,1.7v0.18
		c0,0.95,0.28,1.7,0.84,2.27s1.29,0.85,2.19,0.85c0.53,0,1-0.1,1.43-0.31s0.76-0.5,1.02-0.88l-0.77-0.73
		c-0.41,0.53-0.94,0.79-1.59,0.79c-0.46,0-0.85-0.15-1.16-0.46s-0.48-0.72-0.52-1.24h4.14v-0.57c0-1.01-0.24-1.79-0.71-2.34
		C77.88,14.99,77.21,14.71,76.35,14.71z M77.65,17.41h-2.71c0.07-0.49,0.22-0.87,0.46-1.14c0.24-0.27,0.56-0.41,0.95-0.41
		c0.39,0,0.7,0.12,0.93,0.37c0.22,0.24,0.35,0.6,0.38,1.08V17.41z"/>
	<path class="st0" d="M82.96,16.35c0.25-0.33,0.61-0.5,1.07-0.5c0.36,0,0.66,0.12,0.89,0.35c0.23,0.23,0.36,0.53,0.37,0.9h1.34
		c-0.02-0.71-0.27-1.29-0.75-1.73s-1.09-0.66-1.84-0.66c-0.89,0-1.59,0.29-2.11,0.87c-0.52,0.58-0.77,1.35-0.77,2.32v0.15
		c0,1.01,0.26,1.8,0.78,2.38s1.22,0.86,2.11,0.86c0.46,0,0.88-0.1,1.28-0.3s0.71-0.47,0.94-0.81s0.35-0.71,0.37-1.1h-1.34
		c-0.02,0.3-0.14,0.56-0.38,0.77s-0.53,0.31-0.88,0.31c-0.47,0-0.83-0.17-1.08-0.51s-0.37-0.85-0.37-1.54v-0.23
		C82.58,17.2,82.71,16.69,82.96,16.35z"/>
	<polygon class="st0" points="94.63,14.83 92.87,14.83 91.12,17.36 90.49,17.36 90.49,14.83 89.07,14.83 89.07,21.17 90.49,21.17 
		90.49,18.66 91.22,18.66 92.97,21.17 94.82,21.17 92.34,17.86 	"/>
	<polygon class="st0" points="98.34,19.06 98.34,14.83 96.92,14.83 96.92,21.17 98.34,21.17 100.82,16.94 100.82,21.17 
		102.24,21.17 102.24,14.83 100.82,14.83 	"/>
	<path class="st0" d="M107.65,14.71c-0.54,0-1.04,0.14-1.48,0.42s-0.78,0.67-1.03,1.16c-0.24,0.5-0.37,1.06-0.37,1.7v0.18
		c0,0.95,0.28,1.7,0.84,2.27s1.29,0.85,2.19,0.85c0.53,0,1-0.1,1.43-0.31s0.76-0.5,1.02-0.88l-0.77-0.73
		c-0.41,0.53-0.94,0.79-1.59,0.79c-0.46,0-0.85-0.15-1.16-0.46s-0.48-0.72-0.52-1.24h4.14v-0.57c0-1.01-0.24-1.79-0.71-2.34
		C109.18,14.99,108.51,14.71,107.65,14.71z M108.95,17.41h-2.71c0.07-0.49,0.22-0.87,0.46-1.14c0.24-0.27,0.56-0.41,0.95-0.41
		c0.39,0,0.7,0.12,0.93,0.37c0.22,0.24,0.35,0.6,0.38,1.08V17.41z"/>
	<path class="st0" d="M122.51,14.83h-4.4l-0.08,2.43c-0.03,0.62-0.11,1.12-0.24,1.52s-0.4,0.82-0.79,1.26h-0.52l-0.01,3.02h1.44
		v-1.89h4.07v1.89h1.42v-3.02h-0.88V14.83z M121.09,20.03h-2.43c0.47-0.68,0.74-1.6,0.79-2.77l0.04-1.21h1.6V20.03z"/>
	<path class="st0" d="M127.88,19.13l-1.34-4.3h-1.54l2.23,6.31l-0.21,0.54c-0.11,0.31-0.25,0.53-0.43,0.66s-0.45,0.2-0.81,0.2
		l-0.27-0.02v1.11c0.25,0.07,0.48,0.11,0.69,0.11c0.93,0,1.58-0.53,1.97-1.6l2.52-7.3h-1.52L127.88,19.13z"/>
	<polygon class="st0" points="139.64,20.03 137.65,20.03 137.65,14.83 136.23,14.83 136.23,20.03 134.25,20.03 134.25,14.83 
		132.82,14.83 132.82,21.17 141.06,21.17 141.06,14.83 139.64,14.83 	"/>
	<polygon class="st0" points="145.33,19.06 145.33,14.83 143.92,14.83 143.92,21.17 145.33,21.17 147.82,16.94 147.82,21.17 
		149.24,21.17 149.24,14.83 147.82,14.83 	"/>
	<path class="st0" d="M57.41,33.54c-0.53-0.55-1.23-0.83-2.08-0.83c-0.58,0-1.09,0.13-1.54,0.4s-0.79,0.65-1.04,1.15
		s-0.37,1.06-0.37,1.68v0.07c0,0.99,0.27,1.79,0.81,2.38s1.25,0.89,2.15,0.89c0.59,0,1.1-0.13,1.55-0.4s0.79-0.65,1.03-1.14
		s0.36-1.05,0.36-1.68l-0.01-0.33C58.23,34.82,57.94,34.09,57.41,33.54z M56.46,37.59c-0.27,0.38-0.64,0.56-1.12,0.56
		s-0.86-0.18-1.12-0.55s-0.4-0.88-0.4-1.53c0-0.73,0.14-1.29,0.41-1.66s0.64-0.55,1.11-0.55c0.47,0,0.85,0.19,1.12,0.56
		s0.41,0.88,0.41,1.52C56.86,36.66,56.73,37.21,56.46,37.59z"/>
	<polygon class="st0" points="60.05,33.96 62.08,33.96 62.08,39.17 63.5,39.17 63.5,33.96 65.56,33.96 65.56,32.83 60.05,32.83 	"/>
	<polygon class="st0" points="72.27,31.83 72.27,33.03 74.36,32.31 74.36,39.17 75.78,39.17 75.78,30.61 75.6,30.61 	"/>
	<path class="st0" d="M84.18,34.77c0.37-0.19,0.66-0.44,0.88-0.77s0.32-0.7,0.32-1.12c0-0.73-0.23-1.3-0.7-1.73s-1.1-0.64-1.9-0.64
		c-0.8,0-1.43,0.21-1.9,0.64s-0.7,1-0.7,1.73c0,0.42,0.11,0.79,0.32,1.12s0.5,0.58,0.87,0.77c-0.44,0.2-0.78,0.47-1.02,0.84
		s-0.36,0.77-0.36,1.23c0,0.75,0.25,1.34,0.76,1.78s1.19,0.66,2.04,0.66c0.84,0,1.52-0.22,2.03-0.66s0.76-1.03,0.76-1.78
		c0-0.45-0.12-0.86-0.36-1.22S84.62,34.98,84.18,34.77z M81.91,32c0.21-0.23,0.5-0.34,0.86-0.34s0.65,0.12,0.87,0.36
		c0.21,0.24,0.32,0.55,0.32,0.92c0,0.39-0.11,0.7-0.32,0.93s-0.5,0.35-0.86,0.35s-0.65-0.12-0.86-0.35s-0.32-0.54-0.32-0.93
		C81.59,32.54,81.7,32.23,81.91,32z M83.78,37.79c-0.24,0.24-0.58,0.36-1,0.36s-0.77-0.12-1.01-0.38s-0.37-0.58-0.37-1
		c0-0.43,0.12-0.77,0.37-1.03s0.58-0.39,0.99-0.39s0.75,0.13,1,0.39s0.38,0.6,0.38,1.02C84.14,37.2,84.02,37.54,83.78,37.79z"/>
	<path class="st0" d="M91.94,35.8c0.55-0.59,0.94-1.12,1.18-1.59s0.36-0.91,0.36-1.34c0-0.73-0.24-1.31-0.72-1.73
		s-1.13-0.62-1.96-0.62c-0.57,0-1.08,0.12-1.52,0.35s-0.78,0.55-1.01,0.97c-0.24,0.42-0.35,0.88-0.35,1.4h1.42
		c0-0.49,0.13-0.87,0.38-1.15c0.25-0.28,0.61-0.42,1.07-0.42c0.39,0,0.69,0.12,0.92,0.37c0.23,0.25,0.34,0.58,0.34,0.98
		c0,0.31-0.09,0.62-0.26,0.92s-0.47,0.69-0.88,1.15l-2.84,3.1v0.98h5.74v-1.14h-3.96L91.94,35.8z"/>
	<polygon class="st0" points="95.93,31.78 100.34,31.78 96.94,39.17 98.43,39.17 101.84,31.43 101.84,30.64 95.93,30.64 	"/>
	<path class="st0" d="M107.41,32.71c-0.72,0-1.29,0.25-1.71,0.76l-0.06-0.64h-1.31v8.78h1.42V38.6c0.42,0.46,0.97,0.69,1.67,0.69
		c0.75,0,1.35-0.29,1.79-0.88s0.67-1.37,0.67-2.35v-0.09c0-1.02-0.22-1.82-0.66-2.4S108.18,32.71,107.41,32.71z M108.08,37.6
		c-0.26,0.37-0.61,0.55-1.06,0.55c-0.59,0-1.01-0.25-1.27-0.74V34.6c0.25-0.48,0.67-0.72,1.25-0.72c0.47,0,0.83,0.19,1.08,0.56
		s0.38,0.87,0.38,1.51C108.47,36.68,108.34,37.24,108.08,37.6z"/>
</g>
</svg>
