<?xml version="1.0" encoding="utf-8"?>
<!-- Generator: Adobe Illustrator 25.4.1, SVG Export Plug-In . SVG Version: 6.00 Build 0)  -->
<svg version="1.1" id="Слой_1" xmlns="http://www.w3.org/2000/svg" xmlns:xlink="http://www.w3.org/1999/xlink" x="0px" y="0px"
	 viewBox="0 0 195.09 109.79" style="enable-background:new 0 0 195.09 109.79;" xml:space="preserve">
<style type="text/css">
	.st0{fill:#FFFFFF;}
</style>
<g>
	<path class="st0" d="M186.88,3.17H7.77c-3.1,0-5.63,2.53-5.63,5.63v35.77c0,3.1,2.53,5.63,5.63,5.63h92.06l-37.82,51.69
		c-0.15-0.09-0.3-0.19-0.47-0.26c-1.79-0.77-3.87,0.05-4.65,1.84c-0.77,1.79,0.05,3.87,1.84,4.65c1.79,0.77,3.87-0.05,4.65-1.84
		c0.63-1.46,0.19-3.11-0.97-4.09l38.04-51.99h86.43c3.1,0,5.63-2.52,5.63-5.63V8.8C192.51,5.69,189.98,3.17,186.88,3.17z
		 M192.01,44.57c0,2.83-2.3,5.13-5.13,5.13H7.77c-2.83,0-5.13-2.3-5.13-5.13V8.8c0-2.83,2.3-5.13,5.13-5.13h179.1
		c2.83,0,5.13,2.3,5.13,5.13V44.57z"/>
	<polygon class="st0" points="21.1,14.63 19.35,14.63 17.59,17.16 16.97,17.16 16.97,14.63 15.54,14.63 15.54,20.97 16.97,20.97 
		16.97,18.46 17.69,18.46 19.44,20.97 21.3,20.97 18.81,17.66 	"/>
	<polygon class="st0" points="27.28,17.27 24.82,17.27 24.82,14.63 23.39,14.63 23.39,20.97 24.82,20.97 24.82,18.41 27.28,18.41 
		27.28,20.97 28.71,20.97 28.71,14.63 27.28,14.63 	"/>
	<path class="st0" d="M36.24,15.34c-0.53-0.55-1.23-0.83-2.08-0.83c-0.58,0-1.09,0.13-1.54,0.4s-0.79,0.65-1.04,1.15
		c-0.25,0.5-0.37,1.06-0.37,1.68v0.07c0,0.99,0.27,1.79,0.81,2.38c0.54,0.6,1.25,0.89,2.15,0.89c0.59,0,1.1-0.13,1.55-0.4
		s0.79-0.65,1.03-1.14s0.36-1.05,0.36-1.68l-0.01-0.33C37.06,16.62,36.77,15.89,36.24,15.34z M35.29,19.39
		c-0.27,0.38-0.64,0.56-1.12,0.56s-0.86-0.18-1.12-0.55s-0.4-0.88-0.4-1.53c0-0.73,0.14-1.29,0.41-1.66
		c0.27-0.37,0.64-0.55,1.11-0.55c0.47,0,0.85,0.19,1.12,0.56c0.28,0.38,0.41,0.88,0.41,1.52C35.69,18.46,35.56,19.01,35.29,19.39z"
		/>
	<polygon class="st0" points="39.63,20.97 41.05,20.97 41.05,15.78 43.53,15.78 43.53,20.97 44.95,20.97 44.95,14.63 39.63,14.63 	
		"/>
	<polygon class="st0" points="53.4,14.63 51.64,14.63 49.89,17.16 49.26,17.16 49.26,14.63 47.83,14.63 47.83,20.97 49.26,20.97 
		49.26,18.46 49.98,18.46 51.74,20.97 53.59,20.97 51.1,17.66 	"/>
	<polygon class="st0" points="57.1,18.86 57.1,14.63 55.69,14.63 55.69,20.97 57.1,20.97 59.59,16.74 59.59,20.97 61.01,20.97 
		61.01,14.63 59.59,14.63 	"/>
	<path class="st0" d="M73.04,22.86h1.42v-3.02h-0.88v-5.2h-4.4l-0.08,2.43c-0.03,0.62-0.11,1.12-0.24,1.52s-0.4,0.82-0.79,1.26
		h-0.52l-0.01,3.02h1.44v-1.89h4.07V22.86z M72.16,19.83h-2.43c0.47-0.68,0.74-1.6,0.79-2.77l0.04-1.21h1.6V19.83z"/>
	<path class="st0" d="M78.17,20.28c0.33-0.46,0.54-1.23,0.61-2.29l0.12-2.21h1.79v5.19h1.42v-6.34h-4.56l-0.12,2.71
		c-0.04,0.89-0.13,1.51-0.27,1.85s-0.37,0.53-0.68,0.57l-0.29,0.03l0.01,1.18h0.44C77.33,20.97,77.84,20.74,78.17,20.28z"/>
	<path class="st0" d="M89.97,20.97v-6.34H87.2c-0.77,0.01-1.39,0.2-1.84,0.58s-0.68,0.86-0.68,1.45c0,0.39,0.1,0.74,0.31,1.05
		s0.51,0.54,0.9,0.7l-1.49,2.56h1.48l1.35-2.33h1.33v2.33H89.97z M87.15,17.59c-0.31,0-0.56-0.08-0.76-0.25s-0.3-0.38-0.3-0.65
		c0-0.27,0.1-0.49,0.31-0.67c0.21-0.18,0.48-0.26,0.83-0.26h1.31v1.83H87.15z"/>
	<polygon class="st0" points="101.02,16.74 101.02,20.97 102.43,20.97 102.43,14.63 101.02,14.63 98.53,18.86 98.53,14.63 
		97.11,14.63 97.11,20.97 98.53,20.97 	"/>
	<polygon class="st0" points="106.69,18.41 109.15,18.41 109.15,20.97 110.58,20.97 110.58,14.63 109.15,14.63 109.15,17.27 
		106.69,17.27 106.69,14.63 105.26,14.63 105.26,20.97 106.69,20.97 	"/>
	<path class="st0" d="M115.98,21.09c0.46,0,0.88-0.1,1.28-0.3s0.71-0.47,0.94-0.81s0.35-0.71,0.37-1.1h-1.34
		c-0.02,0.3-0.14,0.56-0.38,0.77s-0.53,0.31-0.88,0.31c-0.47,0-0.83-0.17-1.08-0.51s-0.37-0.85-0.37-1.54v-0.23
		c0-0.68,0.13-1.19,0.38-1.52c0.25-0.33,0.61-0.5,1.07-0.5c0.36,0,0.66,0.12,0.89,0.35c0.23,0.23,0.36,0.53,0.37,0.9h1.34
		c-0.02-0.71-0.27-1.29-0.75-1.73s-1.09-0.66-1.84-0.66c-0.89,0-1.59,0.29-2.11,0.87s-0.77,1.35-0.77,2.32v0.15
		c0,1.01,0.26,1.8,0.78,2.38S115.09,21.09,115.98,21.09z"/>
	<polygon class="st0" points="122.4,20.97 123.83,20.97 123.83,15.76 125.88,15.76 125.88,14.63 120.37,14.63 120.37,15.76 
		122.4,15.76 	"/>
	<path class="st0" d="M133,16.65c-0.01-0.68-0.24-1.2-0.68-1.57s-1.03-0.56-1.78-0.56c-0.49,0-0.93,0.09-1.33,0.26
		s-0.71,0.41-0.94,0.71s-0.35,0.63-0.35,0.98h1.42c0-0.25,0.1-0.46,0.31-0.62c0.21-0.16,0.47-0.24,0.8-0.24
		c0.38,0,0.65,0.1,0.84,0.3c0.18,0.2,0.28,0.46,0.28,0.79v0.42h-0.87c-0.93,0-1.65,0.18-2.15,0.54s-0.75,0.88-0.75,1.56
		c0,0.54,0.2,0.98,0.6,1.35c0.4,0.36,0.92,0.54,1.56,0.54c0.66,0,1.21-0.24,1.66-0.71c0.05,0.27,0.1,0.47,0.16,0.59h1.45v-0.1
		c-0.16-0.34-0.24-0.79-0.24-1.37V16.65z M131.57,19.19c-0.12,0.23-0.31,0.41-0.56,0.55s-0.51,0.21-0.79,0.21
		c-0.3,0-0.55-0.08-0.73-0.24s-0.27-0.38-0.27-0.65c0-0.34,0.13-0.6,0.4-0.78s0.66-0.28,1.19-0.28h0.77V19.19z"/>
	<path class="st0" d="M136.46,17.34c-0.04,0.89-0.13,1.51-0.27,1.85s-0.37,0.53-0.68,0.57l-0.29,0.03l0.01,1.18h0.44
		c0.69,0,1.2-0.23,1.53-0.69s0.54-1.23,0.61-2.29l0.12-2.21h1.79v5.19h1.42v-6.34h-4.56L136.46,17.34z"/>
	<path class="st0" d="M144.62,17.34c-0.04,0.89-0.13,1.51-0.27,1.85s-0.37,0.53-0.68,0.57l-0.29,0.03l0.01,1.18h0.44
		c0.69,0,1.2-0.23,1.53-0.69s0.54-1.23,0.61-2.29l0.12-2.21h1.79v5.19h1.42v-6.34h-4.56L144.62,17.34z"/>
	<path class="st0" d="M152.54,15.21c-0.46,0.38-0.68,0.86-0.68,1.45c0,0.39,0.1,0.74,0.31,1.05s0.51,0.54,0.9,0.7l-1.49,2.56h1.48
		l1.35-2.33h1.33v2.33h1.42v-6.34h-2.77C153.61,14.64,152.99,14.83,152.54,15.21z M155.73,15.76v1.83h-1.4
		c-0.31,0-0.56-0.08-0.76-0.25s-0.3-0.38-0.3-0.65c0-0.27,0.1-0.49,0.31-0.67c0.21-0.18,0.48-0.26,0.83-0.26H155.73z"/>
	<polygon class="st0" points="165.37,14.63 163.94,14.63 163.94,19.83 161.47,19.83 161.47,14.63 160.04,14.63 160.04,20.97 
		164.81,20.97 164.81,22.85 166.11,22.85 166.23,19.83 165.37,19.83 	"/>
	<polygon class="st0" points="169.96,18.86 169.96,14.63 168.54,14.63 168.54,20.97 169.96,20.97 172.44,16.74 172.44,20.97 
		173.86,20.97 173.86,14.63 172.44,14.63 	"/>
	<path class="st0" d="M179.37,13.85c0.57,0,1.03-0.15,1.38-0.46s0.52-0.7,0.52-1.2h-1.07c0,0.26-0.07,0.46-0.22,0.6
		s-0.35,0.21-0.6,0.21s-0.46-0.07-0.61-0.21s-0.22-0.34-0.22-0.6h-1.07c0,0.49,0.17,0.89,0.52,1.2S178.79,13.85,179.37,13.85z"/>
	<polygon class="st0" points="178.11,18.86 178.11,14.63 176.69,14.63 176.69,20.97 178.11,20.97 180.59,16.74 180.59,20.97 
		182.01,20.97 182.01,14.63 180.59,14.63 	"/>
	<path class="st0" d="M75.02,33.34c-0.53-0.55-1.23-0.83-2.08-0.83c-0.58,0-1.09,0.13-1.54,0.4s-0.79,0.65-1.04,1.15
		S70,35.12,70,35.74v0.07c0,0.99,0.27,1.79,0.81,2.38s1.25,0.89,2.15,0.89c0.59,0,1.1-0.13,1.55-0.4s0.79-0.65,1.03-1.14
		s0.36-1.05,0.36-1.68l-0.01-0.33C75.84,34.62,75.55,33.89,75.02,33.34z M74.07,37.39c-0.27,0.38-0.64,0.56-1.12,0.56
		s-0.86-0.18-1.12-0.55s-0.4-0.88-0.4-1.53c0-0.73,0.14-1.29,0.41-1.66s0.64-0.55,1.11-0.55c0.47,0,0.85,0.19,1.12,0.56
		s0.41,0.88,0.41,1.52C74.47,36.46,74.34,37.01,74.07,37.39z"/>
	<polygon class="st0" points="77.65,33.76 79.69,33.76 79.69,38.97 81.11,38.97 81.11,33.76 83.17,33.76 83.17,32.63 77.65,32.63 	
		"/>
	<polygon class="st0" points="89.88,31.63 89.88,32.83 91.97,32.12 91.97,38.97 93.39,38.97 93.39,30.41 93.2,30.41 	"/>
	<polygon class="st0" points="97.38,31.58 101.79,31.58 98.38,38.97 99.88,38.97 103.29,31.23 103.29,30.44 97.38,30.44 	"/>
	<path class="st0" d="M108.36,30.32c-0.55,0-1.04,0.13-1.45,0.38s-0.74,0.61-0.97,1.07c-0.23,0.46-0.34,0.97-0.34,1.53
		c0,0.86,0.22,1.55,0.67,2.07s1.04,0.79,1.79,0.79c0.64,0,1.19-0.25,1.67-0.76c-0.05,0.82-0.31,1.43-0.76,1.82s-1.09,0.59-1.93,0.61
		h-0.21V39H107c1.38-0.01,2.42-0.42,3.11-1.23s1.04-1.98,1.04-3.52v-0.4c0-1.07-0.25-1.93-0.76-2.57S109.22,30.32,108.36,30.32z
		 M109.74,34.12c-0.14,0.29-0.33,0.52-0.58,0.68s-0.52,0.25-0.8,0.25c-0.41,0-0.74-0.16-0.98-0.49S107,33.79,107,33.26
		c0-0.52,0.12-0.94,0.37-1.28c0.24-0.34,0.57-0.51,0.98-0.51s0.74,0.19,1,0.57c0.26,0.38,0.39,0.89,0.39,1.52V34.12z"/>
	<path class="st0" d="M116.44,30.32c-0.55,0-1.04,0.13-1.45,0.38s-0.74,0.61-0.97,1.07c-0.23,0.46-0.34,0.97-0.34,1.53
		c0,0.86,0.22,1.55,0.67,2.07s1.04,0.79,1.79,0.79c0.64,0,1.19-0.25,1.67-0.76c-0.05,0.82-0.31,1.43-0.76,1.82s-1.09,0.59-1.93,0.61
		h-0.21V39h0.17c1.38-0.01,2.42-0.42,3.11-1.23s1.04-1.98,1.04-3.52v-0.4c0-1.07-0.25-1.93-0.76-2.57
		C117.98,30.64,117.3,30.32,116.44,30.32z M117.82,34.12c-0.14,0.29-0.33,0.52-0.58,0.68s-0.52,0.25-0.8,0.25
		c-0.41,0-0.74-0.16-0.98-0.49s-0.37-0.76-0.37-1.29c0-0.52,0.12-0.94,0.37-1.28c0.24-0.34,0.57-0.51,0.98-0.51s0.74,0.19,1,0.57
		c0.26,0.38,0.39,0.89,0.39,1.52V34.12z"/>
	<path class="st0" d="M125.02,32.51c-0.72,0-1.29,0.25-1.71,0.76l-0.06-0.64h-1.31v8.78h1.42V38.4c0.42,0.46,0.97,0.69,1.67,0.69
		c0.75,0,1.35-0.29,1.79-0.88s0.67-1.37,0.67-2.35v-0.09c0-1.02-0.22-1.82-0.66-2.4S125.79,32.51,125.02,32.51z M125.69,37.4
		c-0.26,0.37-0.61,0.55-1.06,0.55c-0.59,0-1.01-0.25-1.27-0.74V34.4c0.25-0.48,0.67-0.72,1.25-0.72c0.47,0,0.83,0.19,1.08,0.56
		s0.38,0.87,0.38,1.51C126.08,36.48,125.95,37.04,125.69,37.4z"/>
</g>
</svg>
