<?xml version="1.0" encoding="utf-8"?>
<!-- Generator: Adobe Illustrator 25.4.1, SVG Export Plug-In . SVG Version: 6.00 Build 0)  -->
<svg version="1.1" id="Слой_1" xmlns="http://www.w3.org/2000/svg" xmlns:xlink="http://www.w3.org/1999/xlink" x="0px" y="0px"
	 viewBox="0 0 210.83 58.14" style="enable-background:new 0 0 210.83 58.14;" xml:space="preserve">
<style type="text/css">
	.st0{fill:#FFFFFF;}
</style>
<g>
	<path class="st0" d="M206.96,49.04c-1.59-0.69-3.4-0.11-4.33,1.27l-41.07-23.66V7.61c0-3.1-2.53-5.63-5.63-5.63H7.32
		c-3.1,0-5.63,2.53-5.63,5.63v35.77c0,3.1,2.53,5.63,5.63,5.63h148.61c3.1,0,5.63-2.52,5.63-5.63V27.23l40.83,23.52
		c-0.02,0.05-0.05,0.09-0.08,0.14c-0.77,1.79,0.05,3.87,1.84,4.65c1.79,0.77,3.87-0.05,4.65-1.84
		C209.58,51.9,208.75,49.82,206.96,49.04z M161.06,43.37c0,2.83-2.3,5.13-5.13,5.13H7.32c-2.83,0-5.13-2.3-5.13-5.13V7.61
		c0-2.83,2.3-5.13,5.13-5.13h148.61c2.83,0,5.13,2.3,5.13,5.13V43.37z"/>
	<polygon class="st0" points="15.14,19.28 16.56,19.28 16.56,14.09 19.03,14.09 19.03,19.28 20.46,19.28 20.46,12.94 15.14,12.94 	
		"/>
	<path class="st0" d="M27.99,13.65c-0.53-0.55-1.23-0.83-2.08-0.83c-0.58,0-1.09,0.13-1.54,0.4s-0.79,0.65-1.04,1.15
		s-0.37,1.06-0.37,1.68v0.07c0,0.99,0.27,1.79,0.81,2.38s1.25,0.89,2.15,0.89c0.59,0,1.1-0.13,1.55-0.4s0.79-0.65,1.03-1.14
		s0.36-1.05,0.36-1.68l-0.01-0.33C28.81,14.94,28.52,14.2,27.99,13.65z M27.04,17.7c-0.27,0.38-0.64,0.56-1.12,0.56
		s-0.86-0.18-1.12-0.55s-0.4-0.88-0.4-1.53c0-0.73,0.14-1.29,0.41-1.66s0.64-0.55,1.11-0.55c0.47,0,0.85,0.19,1.12,0.56
		s0.41,0.88,0.41,1.52C27.44,16.78,27.31,17.33,27.04,17.7z"/>
	<path class="st0" d="M31.94,15.65c-0.04,0.89-0.13,1.51-0.27,1.85s-0.37,0.53-0.68,0.57L30.7,18.1l0.01,1.18h0.44
		c0.69,0,1.2-0.23,1.53-0.69s0.54-1.23,0.61-2.29l0.12-2.21h1.79v5.19h1.42v-6.34h-4.56L31.94,15.65z"/>
	<path class="st0" d="M44.15,13.65c-0.53-0.55-1.23-0.83-2.08-0.83c-0.58,0-1.09,0.13-1.54,0.4s-0.79,0.65-1.04,1.15
		s-0.37,1.06-0.37,1.68v0.07c0,0.99,0.27,1.79,0.81,2.38s1.25,0.89,2.15,0.89c0.59,0,1.1-0.13,1.55-0.4s0.79-0.65,1.03-1.14
		s0.36-1.05,0.36-1.68l-0.01-0.33C44.97,14.94,44.68,14.2,44.15,13.65z M43.2,17.7c-0.27,0.38-0.64,0.56-1.12,0.56
		s-0.86-0.18-1.12-0.55s-0.4-0.88-0.4-1.53c0-0.73,0.14-1.29,0.41-1.66s0.64-0.55,1.11-0.55c0.47,0,0.85,0.19,1.12,0.56
		s0.41,0.88,0.41,1.52C43.6,16.78,43.47,17.33,43.2,17.7z"/>
	<polygon class="st0" points="46.79,14.08 48.82,14.08 48.82,19.28 50.24,19.28 50.24,14.08 52.3,14.08 52.3,12.94 46.79,12.94 	"/>
	<path class="st0" d="M56.76,12.83c-0.54,0-1.04,0.14-1.48,0.42s-0.78,0.67-1.03,1.16s-0.37,1.06-0.37,1.7v0.18
		c0,0.95,0.28,1.7,0.84,2.27s1.29,0.85,2.19,0.85c0.53,0,1-0.1,1.43-0.31s0.76-0.5,1.02-0.88l-0.77-0.73
		C58.19,18,57.66,18.27,57,18.27c-0.46,0-0.85-0.15-1.16-0.46s-0.48-0.72-0.52-1.24h4.14v-0.57c0-1.01-0.24-1.79-0.71-2.34
		S57.62,12.83,56.76,12.83z M58.06,15.52h-2.71c0.07-0.49,0.22-0.87,0.46-1.14s0.56-0.41,0.95-0.41c0.39,0,0.7,0.12,0.93,0.37
		s0.35,0.6,0.38,1.08V15.52z"/>
	<polygon class="st0" points="65.78,15.59 63.31,15.59 63.31,12.94 61.89,12.94 61.89,19.28 63.31,19.28 63.31,16.72 65.78,16.72 
		65.78,19.28 67.2,19.28 67.2,12.94 65.78,12.94 	"/>
	<polygon class="st0" points="74.8,21.17 76.09,21.17 76.21,18.15 75.35,18.15 75.35,12.94 73.93,12.94 73.93,18.15 71.45,18.15 
		71.45,12.94 70.03,12.94 70.03,19.28 74.8,19.28 	"/>
	<path class="st0" d="M82.69,19.09c0.42-0.21,0.76-0.5,1.02-0.88l-0.77-0.73C82.53,18,82,18.27,81.35,18.27
		c-0.46,0-0.85-0.15-1.16-0.46s-0.48-0.72-0.52-1.24h4.14v-0.57c0-1.01-0.24-1.79-0.71-2.34s-1.14-0.83-2-0.83
		c-0.54,0-1.04,0.14-1.48,0.42s-0.78,0.67-1.03,1.16s-0.37,1.06-0.37,1.7v0.18c0,0.95,0.28,1.7,0.84,2.27s1.29,0.85,2.19,0.85
		C81.79,19.4,82.27,19.3,82.69,19.09z M80.15,14.38c0.24-0.27,0.56-0.41,0.95-0.41c0.39,0,0.7,0.12,0.93,0.37s0.35,0.6,0.38,1.08
		v0.11h-2.71C79.75,15.03,79.91,14.65,80.15,14.38z"/>
	<path class="st0" d="M90.07,19.1c0.39-0.2,0.71-0.47,0.94-0.81s0.35-0.71,0.37-1.1h-1.34c-0.02,0.3-0.14,0.56-0.38,0.77
		s-0.53,0.31-0.88,0.31c-0.47,0-0.83-0.17-1.08-0.51s-0.37-0.85-0.37-1.54v-0.23c0-0.68,0.13-1.19,0.38-1.52s0.61-0.5,1.07-0.5
		c0.36,0,0.66,0.12,0.89,0.35s0.36,0.53,0.37,0.9h1.34c-0.02-0.71-0.27-1.29-0.75-1.73s-1.09-0.66-1.84-0.66
		c-0.89,0-1.59,0.29-2.11,0.87s-0.77,1.35-0.77,2.32v0.15c0,1.01,0.26,1.8,0.78,2.38s1.22,0.86,2.11,0.86
		C89.25,19.4,89.68,19.3,90.07,19.1z"/>
	<path class="st0" d="M97.22,12.94l-1.29,4.3l-1.34-4.3h-1.54l2.23,6.31l-0.21,0.54c-0.11,0.31-0.25,0.53-0.43,0.66
		s-0.45,0.2-0.81,0.2l-0.27-0.02v1.11c0.25,0.07,0.48,0.11,0.69,0.11c0.93,0,1.58-0.53,1.97-1.6l2.52-7.3H97.22z"/>
	<polygon class="st0" points="109.1,12.94 107.68,12.94 107.68,18.15 105.7,18.15 105.7,12.94 104.27,12.94 104.27,18.15 
		102.29,18.15 102.29,12.94 100.87,12.94 100.87,19.28 109.1,19.28 	"/>
	<polygon class="st0" points="113.38,17.18 113.38,12.94 111.96,12.94 111.96,19.28 113.38,19.28 115.86,15.05 115.86,19.28 
		117.28,19.28 117.28,12.94 115.86,12.94 	"/>
	<polygon class="st0" points="119.53,14.08 121.57,14.08 121.57,19.28 122.99,19.28 122.99,14.08 125.05,14.08 125.05,12.94 
		119.53,12.94 	"/>
	<path class="st0" d="M129.51,12.83c-0.54,0-1.04,0.14-1.48,0.42s-0.78,0.67-1.03,1.16s-0.37,1.06-0.37,1.7v0.18
		c0,0.95,0.28,1.7,0.84,2.27s1.29,0.85,2.19,0.85c0.53,0,1-0.1,1.43-0.31s0.76-0.5,1.02-0.88l-0.77-0.73
		c-0.41,0.53-0.94,0.79-1.59,0.79c-0.46,0-0.85-0.15-1.16-0.46s-0.48-0.72-0.52-1.24h4.14v-0.57c0-1.01-0.24-1.79-0.71-2.34
		S130.37,12.83,129.51,12.83z M130.81,15.52h-2.71c0.07-0.49,0.22-0.87,0.46-1.14s0.56-0.41,0.95-0.41c0.39,0,0.7,0.12,0.93,0.37
		s0.35,0.6,0.38,1.08V15.52z"/>
	<path class="st0" d="M135.29,15.65c-0.04,0.89-0.13,1.51-0.27,1.85s-0.37,0.53-0.68,0.57l-0.29,0.03l0.01,1.18h0.44
		c0.69,0,1.2-0.23,1.53-0.69s0.54-1.23,0.61-2.29l0.12-2.21h1.79v5.19h1.42v-6.34h-4.56L135.29,15.65z"/>
	<polygon class="st0" points="144.21,17.18 144.21,12.94 142.8,12.94 142.8,19.28 144.21,19.28 146.7,15.05 146.7,19.28 
		148.12,19.28 148.12,12.94 146.7,12.94 	"/>
	<path class="st0" d="M57.9,31.65c-0.53-0.55-1.23-0.83-2.08-0.83c-0.58,0-1.09,0.13-1.54,0.4s-0.79,0.65-1.04,1.15
		c-0.25,0.5-0.37,1.06-0.37,1.68v0.07c0,0.99,0.27,1.79,0.81,2.38s1.25,0.89,2.15,0.89c0.59,0,1.1-0.13,1.55-0.4
		s0.79-0.65,1.03-1.14s0.36-1.05,0.36-1.68l-0.01-0.33C58.72,32.94,58.43,32.2,57.9,31.65z M56.95,35.7
		c-0.27,0.38-0.64,0.56-1.12,0.56s-0.86-0.18-1.12-0.55s-0.4-0.88-0.4-1.53c0-0.73,0.14-1.29,0.41-1.66s0.64-0.55,1.11-0.55
		c0.47,0,0.85,0.19,1.12,0.56s0.41,0.88,0.41,1.52C57.35,34.78,57.21,35.33,56.95,35.7z"/>
	<polygon class="st0" points="60.53,32.08 62.56,32.08 62.56,37.28 63.99,37.28 63.99,32.08 66.04,32.08 66.04,30.94 60.53,30.94 	
		"/>
	<path class="st0" d="M76.27,33.92c0.55-0.59,0.94-1.12,1.18-1.59c0.24-0.47,0.36-0.91,0.36-1.34c0-0.73-0.24-1.31-0.72-1.73
		s-1.13-0.62-1.96-0.62c-0.57,0-1.08,0.12-1.52,0.35s-0.78,0.55-1.01,0.97s-0.35,0.88-0.35,1.4h1.42c0-0.49,0.13-0.87,0.38-1.15
		s0.61-0.42,1.07-0.42c0.39,0,0.69,0.12,0.92,0.38s0.34,0.58,0.34,0.98c0,0.31-0.09,0.62-0.26,0.92c-0.17,0.31-0.47,0.69-0.88,1.15
		l-2.84,3.1v0.98h5.74v-1.14h-3.96L76.27,33.92z"/>
	<path class="st0" d="M83.25,28.64c-0.94,0-1.64,0.31-2.1,0.92s-0.69,1.53-0.69,2.76v1.48c0.01,1.19,0.25,2.09,0.72,2.7
		s1.16,0.91,2.08,0.91c0.94,0,1.64-0.31,2.09-0.93s0.69-1.55,0.69-2.77v-1.48c-0.01-1.19-0.25-2.09-0.71-2.68
		S84.19,28.64,83.25,28.64z M84.62,34.03c-0.01,0.77-0.13,1.33-0.35,1.7s-0.56,0.54-1.01,0.54c-0.48,0-0.83-0.2-1.05-0.59
		s-0.33-0.98-0.33-1.78v-1.93c0.01-0.75,0.13-1.3,0.35-1.66s0.56-0.53,1.03-0.53c0.48,0,0.82,0.19,1.04,0.56s0.33,0.96,0.33,1.76
		V34.03z"/>
	<path class="st0" d="M93.38,28.75h-1.47l-3.68,5.77l0.04,0.87h3.69v1.9h1.42v-1.9h1.06v-1.14h-1.06V28.75z M91.96,34.24h-2.23
		l2.13-3.38l0.11-0.19V34.24z"/>
	<polygon class="st0" points="96.99,29.95 96.99,31.14 99.09,30.43 99.09,37.28 100.5,37.28 100.5,28.72 100.32,28.72 	"/>
	<path class="st0" d="M107.89,30.83c-0.72,0-1.29,0.25-1.71,0.76l-0.06-0.64h-1.31v8.78h1.42v-3.01c0.42,0.46,0.97,0.69,1.67,0.69
		c0.75,0,1.35-0.29,1.79-0.88s0.67-1.37,0.67-2.35v-0.09c0-1.02-0.22-1.82-0.66-2.4C109.27,31.12,108.67,30.83,107.89,30.83z
		 M108.57,35.72c-0.26,0.37-0.61,0.55-1.06,0.55c-0.59,0-1.01-0.25-1.27-0.74v-2.81c0.25-0.48,0.67-0.72,1.25-0.72
		c0.47,0,0.83,0.19,1.08,0.56s0.38,0.87,0.38,1.51C108.95,34.8,108.82,35.35,108.57,35.72z"/>
</g>
</svg>
