<?xml version="1.0" encoding="utf-8"?>
<!-- Generator: Adobe Illustrator 25.4.1, SVG Export Plug-In . SVG Version: 6.00 Build 0)  -->
<svg version="1.1" id="Слой_1" xmlns="http://www.w3.org/2000/svg" xmlns:xlink="http://www.w3.org/1999/xlink" x="0px" y="0px"
	 viewBox="0 0 177.93 52.14" style="enable-background:new 0 0 177.93 52.14;" xml:space="preserve">
<style type="text/css">
	.st0{fill:#FFFFFF;}
</style>
<g>
	<path class="st0" d="M173.99,11.73c-1.79-0.77-3.87,0.05-4.65,1.84c-0.42,0.97-0.36,2.01,0.06,2.9l-39.36,10.26V7.86
		c0-3.1-2.53-5.63-5.63-5.63H8.34c-3.1,0-5.63,2.52-5.63,5.63v35.77c0,3.1,2.53,5.63,5.63,5.63h116.07c3.1,0,5.63-2.53,5.63-5.63
		V27.25l39.6-10.33c0.37,0.55,0.89,1.01,1.54,1.3c1.79,0.77,3.87-0.05,4.65-1.84C176.61,14.58,175.79,12.5,173.99,11.73z
		 M129.54,43.63c0,2.83-2.3,5.13-5.13,5.13H8.34c-2.83,0-5.13-2.3-5.13-5.13V7.86c0-2.83,2.3-5.13,5.13-5.13h116.07
		c2.83,0,5.13,2.3,5.13,5.13V43.63z"/>
	<path class="st0" d="M17.53,12.97h-4.4l-0.08,2.43c-0.03,0.62-0.11,1.12-0.24,1.52s-0.4,0.82-0.79,1.26h-0.52l-0.01,3.02h1.44
		v-1.89h4.07v1.89h1.42v-3.02h-0.88V12.97z M16.12,18.17h-2.43c0.47-0.68,0.74-1.6,0.79-2.77l0.04-1.21h1.6V18.17z"/>
	<path class="st0" d="M22.91,17.27l-1.34-4.3h-1.54l2.23,6.31l-0.21,0.54c-0.11,0.31-0.25,0.53-0.43,0.66s-0.45,0.2-0.81,0.2
		l-0.27-0.02v1.11c0.25,0.07,0.48,0.11,0.69,0.11c0.93,0,1.58-0.53,1.97-1.6l2.52-7.3H24.2L22.91,17.27z"/>
	<polygon class="st0" points="34.66,18.17 32.67,18.17 32.67,12.97 31.25,12.97 31.25,18.17 29.27,18.17 29.27,12.97 27.85,12.97 
		27.85,19.31 36.08,19.31 36.08,12.97 34.66,12.97 	"/>
	<path class="st0" d="M41.51,12.85c-0.54,0-1.04,0.14-1.48,0.42s-0.78,0.67-1.03,1.16s-0.37,1.06-0.37,1.7v0.18
		c0,0.95,0.28,1.7,0.84,2.27s1.29,0.85,2.19,0.85c0.53,0,1-0.1,1.43-0.31s0.76-0.5,1.02-0.88l-0.77-0.73
		c-0.41,0.53-0.94,0.79-1.59,0.79c-0.46,0-0.85-0.15-1.16-0.46s-0.48-0.72-0.52-1.24h4.14v-0.57c0-1.01-0.24-1.79-0.71-2.34
		S42.37,12.85,41.51,12.85z M42.81,15.55H40.1c0.07-0.49,0.22-0.87,0.46-1.14S41.11,14,41.5,14c0.39,0,0.7,0.12,0.93,0.37
		s0.35,0.6,0.38,1.08V15.55z"/>
	<path class="st0" d="M50.85,16.05c0.36-0.12,0.62-0.3,0.81-0.54s0.27-0.5,0.27-0.79c0-0.57-0.23-1-0.68-1.3s-1.11-0.45-1.98-0.45
		h-2.57v6.34h2.97c0.82,0,1.44-0.15,1.88-0.46s0.65-0.76,0.65-1.35c0-0.36-0.12-0.66-0.36-0.93S51.26,16.14,50.85,16.05z
		 M48.11,14.1h1.24c0.77,0.02,1.15,0.27,1.15,0.77c0,0.48-0.4,0.71-1.21,0.71h-1.17V14.1z M49.67,18.19h-1.56v-1.58h1.54
		c0.74,0,1.11,0.26,1.11,0.79C50.77,17.92,50.4,18.19,49.67,18.19z"/>
	<rect x="61.2" y="12.97" class="st0" width="1.42" height="6.34"/>
	<path class="st0" d="M60.15,17.14c0-0.43-0.1-0.81-0.3-1.13c-0.2-0.32-0.5-0.58-0.88-0.76s-0.84-0.27-1.36-0.27h-1.39v-2.02h-1.42
		v6.34h2.83c0.77,0,1.38-0.2,1.84-0.6S60.15,17.79,60.15,17.14z M58.42,17.91c-0.2,0.17-0.48,0.26-0.82,0.26h-1.39v-2.04h1.42
		c0.34,0,0.6,0.1,0.8,0.28s0.3,0.44,0.3,0.76S58.63,17.74,58.42,17.91z"/>
	<path class="st0" d="M68.38,19.43c0.53,0,1-0.1,1.43-0.31s0.76-0.5,1.02-0.88l-0.77-0.73c-0.41,0.53-0.94,0.79-1.59,0.79
		c-0.46,0-0.85-0.15-1.16-0.46s-0.48-0.72-0.52-1.24h4.14v-0.57c0-1.01-0.24-1.79-0.71-2.34s-1.14-0.83-2-0.83
		c-0.54,0-1.04,0.14-1.48,0.42s-0.78,0.67-1.03,1.16s-0.37,1.06-0.37,1.7v0.18c0,0.95,0.28,1.7,0.84,2.27S67.48,19.43,68.38,19.43z
		 M67.27,14.41c0.24-0.27,0.56-0.41,0.95-0.41c0.39,0,0.7,0.12,0.93,0.37s0.35,0.6,0.38,1.08v0.11h-2.71
		C66.87,15.06,67.03,14.68,67.27,14.41z"/>
	<path class="st0" d="M82.74,17.21H81.4c-0.02,0.3-0.14,0.56-0.38,0.77s-0.53,0.31-0.88,0.31c-0.47,0-0.83-0.17-1.08-0.51
		s-0.37-0.85-0.37-1.54v-0.23c0-0.68,0.13-1.19,0.38-1.52s0.61-0.5,1.07-0.5c0.36,0,0.66,0.12,0.89,0.35s0.36,0.53,0.37,0.9h1.34
		c-0.02-0.71-0.27-1.29-0.75-1.73s-1.09-0.66-1.84-0.66c-0.89,0-1.59,0.29-2.11,0.87s-0.77,1.35-0.77,2.32v0.15
		c0,1.01,0.26,1.8,0.78,2.38s1.22,0.86,2.11,0.86c0.46,0,0.88-0.1,1.28-0.3s0.71-0.47,0.94-0.81S82.73,17.61,82.74,17.21z"/>
	<polygon class="st0" points="90.07,12.97 84.56,12.97 84.56,14.1 86.59,14.1 86.59,19.31 88.01,19.31 88.01,14.1 90.07,14.1 	"/>
	<path class="st0" d="M96.86,13.68c-0.53-0.55-1.23-0.83-2.08-0.83c-0.58,0-1.09,0.13-1.54,0.4s-0.79,0.65-1.04,1.15
		s-0.37,1.06-0.37,1.68v0.07c0,0.99,0.27,1.79,0.81,2.38s1.25,0.89,2.15,0.89c0.59,0,1.1-0.13,1.55-0.4s0.79-0.65,1.03-1.14
		s0.36-1.05,0.36-1.68l-0.01-0.33C97.68,14.96,97.39,14.23,96.86,13.68z M95.91,17.73c-0.27,0.38-0.64,0.56-1.12,0.56
		s-0.86-0.18-1.12-0.55s-0.4-0.88-0.4-1.53c0-0.73,0.14-1.29,0.41-1.66S94.31,14,94.77,14c0.47,0,0.85,0.19,1.12,0.56
		s0.41,0.88,0.41,1.52C96.31,16.8,96.18,17.35,95.91,17.73z"/>
	<path class="st0" d="M102.92,12.19c0.57,0,1.03-0.15,1.38-0.46s0.52-0.7,0.52-1.2h-1.07c0,0.26-0.07,0.46-0.22,0.6
		s-0.35,0.21-0.6,0.21s-0.46-0.07-0.61-0.21s-0.22-0.34-0.22-0.6h-1.07c0,0.49,0.17,0.89,0.52,1.2S102.35,12.19,102.92,12.19z"/>
	<polygon class="st0" points="101.67,17.2 101.67,12.97 100.25,12.97 100.25,19.31 101.67,19.31 104.15,15.08 104.15,19.31 
		105.57,19.31 105.57,12.97 104.15,12.97 	"/>
	<polygon class="st0" points="114.01,12.97 112.25,12.97 110.5,15.5 109.87,15.5 109.87,12.97 108.45,12.97 108.45,19.31 
		109.87,19.31 109.87,16.8 110.6,16.8 112.35,19.31 114.21,19.31 111.72,16.01 	"/>
	<polygon class="st0" points="117.72,17.2 117.72,12.97 116.3,12.97 116.3,19.31 117.72,19.31 120.21,15.08 120.21,19.31 
		121.62,19.31 121.62,12.97 120.21,12.97 	"/>
	<path class="st0" d="M43.1,31.68c-0.53-0.55-1.23-0.83-2.08-0.83c-0.58,0-1.09,0.13-1.54,0.4s-0.79,0.65-1.04,1.15
		s-0.37,1.06-0.37,1.68v0.07c0,0.99,0.27,1.79,0.81,2.38s1.25,0.89,2.15,0.89c0.59,0,1.1-0.13,1.55-0.4s0.79-0.65,1.03-1.14
		s0.36-1.05,0.36-1.68l-0.01-0.33C43.92,32.96,43.63,32.23,43.1,31.68z M42.15,35.73c-0.27,0.38-0.64,0.56-1.12,0.56
		s-0.86-0.18-1.12-0.55s-0.4-0.88-0.4-1.53c0-0.73,0.14-1.29,0.41-1.66S40.55,32,41.02,32c0.47,0,0.85,0.19,1.12,0.56
		s0.41,0.88,0.41,1.52C42.55,34.8,42.42,35.35,42.15,35.73z"/>
	<polygon class="st0" points="45.74,32.1 47.77,32.1 47.77,37.31 49.19,37.31 49.19,32.1 51.25,32.1 51.25,30.97 45.74,30.97 	"/>
	<path class="st0" d="M60.86,31.66c-0.71,0-1.29,0.24-1.75,0.72c0.09-0.78,0.37-1.38,0.85-1.81s1.11-0.64,1.91-0.66h0.18v-1.18H61.9
		c-1.37,0-2.42,0.42-3.14,1.27s-1.09,2.02-1.09,3.52v0.49c0,1.02,0.26,1.84,0.79,2.47s1.22,0.94,2.07,0.94
		c0.83,0,1.5-0.27,2.01-0.81s0.76-1.24,0.76-2.11c0-0.84-0.22-1.53-0.65-2.06S61.61,31.66,60.86,31.66z M61.52,35.8
		c-0.25,0.32-0.58,0.47-1,0.47s-0.77-0.19-1.03-0.56s-0.4-0.88-0.4-1.51v-0.43c0.12-0.29,0.31-0.53,0.57-0.7s0.55-0.26,0.86-0.26
		c0.41,0,0.75,0.16,1,0.49s0.38,0.74,0.38,1.26S61.76,35.49,61.52,35.8z"/>
	<path class="st0" d="M69.87,32.92c0.37-0.19,0.66-0.44,0.88-0.77s0.32-0.7,0.32-1.12c0-0.73-0.23-1.3-0.7-1.73s-1.1-0.64-1.9-0.64
		c-0.8,0-1.43,0.21-1.9,0.64s-0.7,1-0.7,1.73c0,0.42,0.11,0.79,0.32,1.12s0.5,0.58,0.87,0.77c-0.44,0.2-0.78,0.47-1.02,0.84
		s-0.36,0.77-0.36,1.23c0,0.75,0.25,1.34,0.76,1.78s1.19,0.66,2.04,0.66c0.84,0,1.52-0.22,2.03-0.66s0.76-1.03,0.76-1.78
		c0-0.45-0.12-0.86-0.36-1.22S70.31,33.12,69.87,32.92z M67.6,30.15c0.21-0.23,0.5-0.34,0.86-0.34s0.65,0.12,0.87,0.36
		s0.32,0.55,0.32,0.92c0,0.39-0.11,0.7-0.32,0.93s-0.5,0.35-0.86,0.35s-0.65-0.12-0.86-0.35s-0.32-0.54-0.32-0.93
		C67.28,30.69,67.39,30.38,67.6,30.15z M69.47,35.93c-0.24,0.24-0.58,0.36-1,0.36s-0.77-0.12-1.01-0.38s-0.37-0.58-0.37-1
		c0-0.43,0.12-0.77,0.37-1.03s0.58-0.39,0.99-0.39s0.75,0.13,1,0.39s0.38,0.6,0.38,1.02C69.83,35.35,69.71,35.69,69.47,35.93z"/>
	<polygon class="st0" points="74.12,29.97 74.12,31.17 76.21,30.46 76.21,37.31 77.63,37.31 77.63,28.75 77.45,28.75 	"/>
	<path class="st0" d="M84.98,31.71c-0.5,0-0.94,0.11-1.34,0.34l0.23-2.04h3.4v-1.23H82.7l-0.46,4.3l1.14,0.28
		c0.21-0.2,0.41-0.33,0.59-0.4s0.4-0.1,0.66-0.1c0.47,0,0.84,0.15,1.11,0.45s0.4,0.71,0.4,1.23c0,0.54-0.12,0.96-0.37,1.28
		s-0.58,0.47-1.02,0.47c-0.39,0-0.71-0.11-0.95-0.33s-0.39-0.54-0.45-0.95h-1.38c0.04,0.73,0.32,1.31,0.83,1.75s1.16,0.67,1.94,0.67
		c0.87,0,1.56-0.26,2.06-0.77s0.75-1.2,0.75-2.07c0-0.88-0.23-1.58-0.68-2.1S85.8,31.71,84.98,31.71z"/>
	<path class="st0" d="M93.1,30.85c-0.72,0-1.29,0.25-1.71,0.76l-0.06-0.64h-1.31v8.78h1.42v-3.01c0.42,0.46,0.97,0.69,1.67,0.69
		c0.75,0,1.35-0.29,1.79-0.88s0.67-1.37,0.67-2.35v-0.09c0-1.02-0.22-1.82-0.66-2.4S93.87,30.85,93.1,30.85z M93.77,35.74
		c-0.26,0.37-0.61,0.55-1.06,0.55c-0.59,0-1.01-0.25-1.27-0.74v-2.81c0.25-0.48,0.67-0.72,1.25-0.72c0.47,0,0.83,0.19,1.08,0.56
		s0.38,0.87,0.38,1.51C94.16,34.82,94.03,35.38,93.77,35.74z"/>
</g>
</svg>
